<?xml version="1.0" standalone="no"?>
<!DOCTYPE svg PUBLIC "-//W3C//DTD SVG 20010904//EN" "http://www.w3.org/TR/2001/REC-SVG-20010904/DTD/svg10.dtd">
<!-- Created using Krita: https://krita.org -->
<svg xmlns="http://www.w3.org/2000/svg" 
    xmlns:xlink="http://www.w3.org/1999/xlink"
    xmlns:krita="http://krita.org/namespaces/svg/krita"
    xmlns:sodipodi="http://sodipodi.sourceforge.net/DTD/sodipodi-0.dtd"
    width="1296.72pt"
    height="548.64pt"
    viewBox="0 0 1296.72 548.64">
<defs/>
<path id="shape0" transform="matrix(2.48052938524685 0 0 2.62256749366703 4.45643460492523 5.10572066189002)" fill="#000000" stroke="#000000" stroke-width="3.6216" stroke-linecap="square" stroke-linejoin="bevel" d="M106.801 0C131.986 0.541046 154.327 8.15814 174.378 22.5938C179.031 25.9443 178.721 30.2021 173.661 33.2568C171.432 34.6022 170.208 32.8272 168.862 31.8321C154.243 21.0281 138.062 14.1547 119.968 11.7479C66.6228 4.65219 17.9342 39.7781 11.5492 90.9502C11.0179 95.2084 12.3398 96.5614 16.5782 96.5275C35.5751 96.3757 54.5777 96.6838 73.57 96.3519C80.15 96.2369 84.4923 98.5038 88.093 103.938C96.097 116.019 104.525 127.819 112.816 139.708C113.938 141.316 114.722 143.257 116.737 144.215C118.95 143.679 119.584 141.574 120.654 140C142.846 107.343 164.994 74.6563 187.152 41.9764C187.62 41.287 188.002 40.502 188.595 39.9428C190.179 38.4489 191.044 35.2129 193.889 36.3797C196.632 37.505 199.038 39.5583 199.302 43.0025C199.391 44.1635 199.376 45.3339 199.375 46.5001C199.374 82.9872 199.369 119.474 199.359 155.961C199.359 157.461 199.453 158.981 199.241 160.455C198.722 164.063 196.439 166.83 193.29 167.883C190.333 168.872 189.386 165.374 188.036 163.493C177.158 148.331 166.394 133.089 155.57 117.889C154.725 116.703 154.126 115.215 151.906 114.609C148.891 118.905 145.716 123.335 142.639 127.833C136.524 136.769 130.55 145.803 124.351 154.679C119.483 161.65 114.433 161.527 109.459 154.457C99.296 140.014 89.1237 125.576 79.1098 111.029C77.1999 108.255 75.1058 107.115 71.7124 107.142C53.5487 107.284 35.3832 107.19 17.2184 107.208C11.1936 107.214 11.2082 107.387 11.989 113.554C17.6017 157.884 56.1544 188.925 95.4874 193.695C123.609 197.105 148.991 190.453 171.812 173.757C175.91 170.759 180.261 172.138 182.267 176.919C183.2 179.141 181.499 179.886 180.243 180.879C164.745 193.13 147.184 201.028 127.71 203.8C87.2177 209.565 52.3355 197.958 25.0144 167.211C-17.4524 119.419 -4.10404 45.1567 51.8494 14.1934C68.8637 4.77808 87.0244 0.289048 106.801 0M178.691 74.9997C172.988 83.396 167.364 91.848 161.535 100.156C159.708 102.759 159.818 104.7 161.672 107.271C168.971 117.391 176.047 127.672 183.219 137.883C184.482 139.68 185.808 141.433 187.348 143.54C187.348 116.327 187.348 89.8868 187.348 62.1865C184.1 66.9904 181.596 70.6947 178.691 74.9997Z" sodipodi:nodetypes="ccccccccccccccccccccccccccccccccccccccccccccc"/><path id="shape1" transform="matrix(2.48052938524685 0 0 2.62256749366703 541.779153309809 110.435156221466)" fill="#000000" stroke="#000000" stroke-width="2.1816" stroke-linecap="square" stroke-linejoin="bevel" d="M57.3645 108.214C142.162 108.205 213.854 106.611 298.152 106.609C300.963 107.359 301.611 105.847 302.994 114.131C302.307 116.757 301.826 119.147 299.878 119.147C198.42 119.167 111.535 119.557 10.0774 119.547C1.40048 119.546 0.0277735 118.143 0.0253925 109.324C0.0162065 75.5048 0.0351885 41.6857 3.25329e-05 7.86657C-0.00344647 4.50415 0.26517 1.44094 4.16269 0.322412C8.69174 -0.977362 12.4784 1.75189 12.5731 6.72399C12.7348 15.2174 12.6312 23.7159 12.6324 32.2123C12.6358 55.3693 12.6271 78.5262 12.6428 101.683C12.6472 108.183 12.6784 108.198 19.3809 108.205C31.8754 108.219 44.3699 108.212 57.3645 108.214Z" sodipodi:nodetypes="ccccccccccccc"/><path id="shape2" transform="matrix(2.48052938524685 0 0 2.62256749366703 1079.44009940819 189.382916260991)" fill="#000000" stroke="#000000" stroke-width="0.0216" stroke-linecap="square" stroke-linejoin="bevel" d="M2.83366 59.2974C10.527 41.7435 18.1128 24.5564 25.5177 7.29179C27.2915 3.15614 29.4518 0.0172509 34.4516 6.98694e-05C39.1777 -0.0161351 41.4546 2.78809 43.2618 6.75452C52.014 25.9637 60.9384 45.0944 69.7571 64.2734C70.5021 65.8937 71.5196 67.4957 71.2791 69.4224C63.6692 72.1647 60.3192 70.8068 56.8873 64.103C54.9465 60.3117 54.3968 54.6193 50.5425 53.3091C46.9713 52.0951 43.0535 56.0831 39.2766 57.7419C31.3623 61.2179 23.4744 64.7611 15.6664 68.4678C12.5615 69.9418 9.41496 70.5379 6.03654 70.5253C-0.0568497 70.5026 -1.15675 68.9705 1.04613 63.2836C1.5258 62.0452 2.11894 60.8506 2.83366 59.2974M23.7378 40.5405C21.76 45.69 18.9639 50.5448 17.5473 56.7297C27.8269 51.9933 37.3815 47.5909 47.1913 43.0709C42.8901 33.8185 38.9555 25.3547 34.5492 15.8763C30.6888 24.6569 27.3524 32.2456 23.7378 40.5405Z" sodipodi:nodetypes="cccccccccccccccccc"/><path id="shape3" transform="matrix(2.48052938524685 0 0 2.62256749366703 888.140402454528 191.509497862494)" fill="#000000" stroke="#000000" stroke-width="0.0216" stroke-linecap="square" stroke-linejoin="bevel" d="M1.49176 2.23491C6.96869 -1.27577 11.8765 -0.601212 15.7074 3.91179C20.8814 10.0072 25.9999 16.1497 31.1611 22.2561C32.2138 23.5015 32.9797 25.0815 35.6337 25.8245C41.4263 19.1132 47.642 12.2478 53.4478 5.05174C56.637 1.09883 60.4241 -0.333817 65.248 0.151778C66.9067 0.31877 68.7452 0.20674 69.4976 2.08772C70.1903 3.81938 68.7363 4.83577 67.775 5.92937C60.1895 14.5586 52.6957 23.273 44.9205 31.7282C42.5777 34.2759 42.6952 35.9042 44.8499 38.3939C52.2607 46.9566 59.4891 55.6778 66.7391 64.3784C67.758 65.6012 69.3067 66.6397 68.949 68.612C63.3651 71.2297 56.9966 70.0705 53.3352 65.7467C47.3394 58.6662 41.3615 51.5705 34.8283 43.8326C28.5465 51.0834 22.4937 57.4612 17.1847 64.4075C13.522 69.1997 8.99176 70.2227 3.61994 69.8409C2.35199 69.7508 0.795964 69.8519 0.172978 68.3325C-0.459346 66.7905 0.783024 65.8543 1.62854 64.8848C8.8534 56.6014 15.9333 48.1811 23.4276 40.1479C26.7058 36.634 27.0206 34.2299 23.652 30.5207C16.7138 22.8812 10.2655 14.7964 3.63117 6.88191C2.57581 5.62297 1.25837 4.4742 1.49176 2.23491Z" sodipodi:nodetypes="cccccccccccccccccccccc"/><path id="shape4" transform="matrix(2.48052938524685 0 0 2.62256749366703 698.268269364304 343.310975852068)" fill="#000000" stroke="#000000" stroke-width="0" stroke-linecap="square" stroke-linejoin="bevel" d="M0.0177245 4.37142C0.368372 1.0603 2.17117 0.0257495 4.85757 0.0262065C22.9815 0.0293505 41.1056 0.0372845 59.2294 2.24817e-05C62.5064 -0.00672152 64.2548 1.50365 64.2912 4.75811C64.3296 8.19753 62.4502 10.0534 59.0723 10.1011C50.5944 10.2207 42.1145 10.2801 33.6359 10.2415C24.163 10.1983 14.6906 10.0263 5.21816 9.8977C1.88546 9.85247 -0.216283 8.50979 0.0177245 4.37142Z" sodipodi:nodetypes="cccccccc"/><path id="shape5" transform="matrix(2.48052938524685 0 0 2.62256749366703 700.281070351996 191.416213477035)" fill="#000000" stroke="#000000" stroke-width="0" stroke-linecap="square" stroke-linejoin="bevel" d="M53.3592 0C55.5074 0.012146 57.1749 -0.025299 58.8373 0.05011C62.0705 0.196686 63.6341 1.94659 63.6724 5.16989C63.7117 8.46832 61.9529 10.0339 58.8356 10.3297C58.0085 10.4081 57.1722 10.4131 56.3401 10.4131C39.8517 10.414 23.3633 10.4212 6.87486 10.3939C4.02446 10.3892 1.00914 10.5318 0.219346 6.72168C-0.693313 2.31928 1.21776 0.109894 6.40898 0.07843C21.8976 -0.015442 37.387 0.017792 53.3592 0Z" sodipodi:nodetypes="ccccccccc"/><path id="shape6" transform="matrix(2.48052938524685 0 0 2.62256749366703 704.29428986941 267.470048040437)" fill="#000000" stroke="#000000" stroke-width="0.0216" stroke-linecap="square" stroke-linejoin="bevel" d="M30.836 10.1471C22.0041 10.1377 13.536 10.1742 5.06864 10.0891C2.79868 10.0663 0.396354 9.89703 0.0503263 5.77242C-0.228195 2.45162 0.61696 0.0700005 3.39802 0.0527885C14.3558 -0.0150215 25.314 -0.00903953 36.2718 0.0235225C38.4947 0.0301445 39.7508 1.68429 39.8631 4.65051C39.9829 7.81744 38.838 9.75112 36.4249 9.99639C34.6905 10.1727 32.9421 10.1057 30.836 10.1471Z" sodipodi:nodetypes="cccccccc"/>
</svg>
