<?xml version="1.0" standalone="no"?>
<!DOCTYPE svg PUBLIC "-//W3C//DTD SVG 20010904//EN" "http://www.w3.org/TR/2001/REC-SVG-20010904/DTD/svg10.dtd">
<!-- Created using Krita: https://krita.org -->
<svg xmlns="http://www.w3.org/2000/svg" 
    xmlns:xlink="http://www.w3.org/1999/xlink"
    xmlns:krita="http://krita.org/namespaces/svg/krita"
    xmlns:sodipodi="http://sodipodi.sourceforge.net/DTD/sodipodi-0.dtd"
    width="1474.56pt"
    height="1474.56pt"
    viewBox="0 0 1474.56 1474.56">
<defs/>
<path id="shape0" transform="matrix(2.44226763523251 0 0 2.58211482963684 150.444129547073 141.830297444271)" fill="#ffffff" stroke="#ffffff" stroke-width="7.4808" stroke-linecap="square" stroke-linejoin="bevel" d="M239.403 0C295.858 1.2128 345.936 18.2872 390.882 50.6458C401.313 58.1562 400.617 67.7006 389.275 74.5478C384.28 77.5637 381.536 73.5849 378.517 71.3543C345.747 47.1362 309.476 31.7289 268.918 26.3339C149.34 10.4283 40.201 89.1663 25.8886 203.872C24.6976 213.417 27.6609 216.45 37.1613 216.375C79.7445 216.034 122.34 216.725 164.913 215.981C179.663 215.723 189.396 220.805 197.468 232.986C215.409 260.065 234.301 286.517 252.886 313.167C255.4 316.772 257.158 321.123 261.676 323.269C266.635 322.067 268.057 317.35 270.456 313.821C320.2 240.617 369.848 167.348 419.517 94.0933C420.565 92.5478 421.422 90.7882 422.752 89.5349C426.303 86.1862 428.24 78.9326 434.617 81.5481C440.767 84.0707 446.16 88.6736 446.751 96.3934C446.951 98.9958 446.916 101.62 446.916 104.233C446.913 186.022 446.902 267.811 446.879 349.6C446.879 352.961 447.09 356.37 446.615 359.672C445.451 367.762 440.335 373.963 433.275 376.324C426.646 378.541 424.524 370.701 421.498 366.482C397.114 332.497 372.986 298.329 348.722 264.257C346.829 261.598 345.487 258.264 340.51 256.905C333.753 266.534 326.635 276.466 319.737 286.547C306.03 306.578 292.639 326.829 278.744 346.727C267.831 362.352 256.511 362.075 245.36 346.228C222.58 313.852 199.778 281.489 177.331 248.882C173.05 242.662 168.355 240.107 160.749 240.166C120.034 240.486 79.3145 240.275 38.5964 240.316C25.0915 240.329 25.1242 240.715 26.8744 254.54C39.4557 353.909 125.874 423.491 214.043 434.183C277.08 441.827 333.977 426.916 385.131 389.492C394.318 382.77 404.07 385.862 408.567 396.578C410.657 401.559 406.845 403.23 404.029 405.455C369.289 432.915 329.925 450.621 286.273 456.836C195.506 469.757 117.314 443.739 56.0719 374.817C-39.1209 267.688 -9.19974 101.222 116.225 31.8156C154.364 10.7104 195.073 0.647925 239.403 0M400.549 168.118C387.766 186.939 375.16 205.884 362.093 224.508C357.999 230.343 358.245 234.693 362.402 240.457C378.762 263.142 394.624 286.187 410.702 309.077C413.531 313.106 416.503 317.033 419.956 321.756C419.956 260.757 419.956 201.489 419.956 139.396C412.676 150.165 407.062 158.468 400.549 168.118Z" sodipodi:nodetypes="ccccccccccccccccccccccccccccccccccccccccccccc"/>
</svg>
